{
  "accessors": [
    {
      "bufferView": 0,
      "componentType": 5125,
      "count": 105216,
      "type": "SCALAR"
    },
    {
      "bufferView": 1,
      "componentType": 5126,
      "count": 23573,
      "max": [
        0.198925852775574,
        0.150135889649391,
        0.0221850704401731
      ],
      "min": [
        -0.265373140573502,
        -0.228398501873016,
        -0.0119266957044601
      ],
      "type": "VEC3"
    },
    {
      "bufferView": 2,
      "componentType": 5126,
      "count": 23573,
      "type": "VEC3"
    },
    {
      "bufferView": 3,
      "componentType": 5126,
      "count": 23573,
      "type": "VEC4"
    },
    {
      "bufferView": 4,
      "componentType": 5126,
      "count": 23573,
      "type": "VEC2"
    }
  ],
  "asset": {
    "generator": "Adobe Substance 3D Painter 8.3.0",
    "version": "2.0"
  },
  "bufferViews": [
    {
      "buffer": 0,
      "byteLength": 420864,
      "target": 34963
    },
    {
      "buffer": 0,
      "byteLength": 282876,
      "byteOffset": 420864,
      "target": 34962
    },
    {
      "buffer": 0,
      "byteLength": 282876,
      "byteOffset": 703740,
      "target": 34962
    },
    {
      "buffer": 0,
      "byteLength": 377168,
      "byteOffset": 986616,
      "target": 34962
    },
    {
      "buffer": 0,
      "byteLength": 188584,
      "byteOffset": 1363784,
      "target": 34962
    }
  ],
  "buffers": [
    {
      "byteLength": 1552368,
      "uri": "PBR - Metallic Roughness Alpha-blend.bin"
    }
  ],
  "images": [
    {
      "uri": "aiStandardSurface4_baseColor_1001.png"
    },
    {
      "uri": "aiStandardSurface4_occlusionRoughnessMetallic_1001.png"
    },
    {
      "uri": "aiStandardSurface4_normal_1001.png"
    },
    {
      "uri": "aiStandardSurface4_emissive_1001.png"
    }
  ],
  "materials": [
    {
      "alphaMode": "BLEND",
      "emissiveFactor": [
        1.0,
        1.0,
        1.0
      ],
      "emissiveTexture": {
        "index": 3
      },
      "name": "aiStandardSurface4_1001",
      "normalTexture": {
        "index": 2
      },
      "occlusionTexture": {
        "index": 1
      },
      "pbrMetallicRoughness": {
        "baseColorTexture": {
          "index": 0
        },
        "metallicRoughnessTexture": {
          "index": 1
        }
      }
    }
  ],
  "meshes": [
    {
      "name": "earphones jack",
      "primitives": [
        {
          "attributes": {
            "NORMAL": 2,
            "POSITION": 1,
            "TANGENT": 3,
            "TEXCOORD_0": 4
          },
          "indices": 0,
          "material": 0,
          "mode": 4
        }
      ]
    }
  ],
  "nodes": [
    {
      "children": [
        1
      ],
      "name": "RootNode"
    },
    {
      "children": [
        2
      ],
      "name": "earphones jack",
      "rotation": [
        -0.300594687461853,
        0.640033483505249,
        0.640033483505249,
        0.300594598054886
      ],
      "scale": [
        20.0238361358643,
        20.0238361358643,
        20.0238342285156
      ],
      "translation": [
        3.81368255615234,
        0.313244581222534,
        -3.32270383834839
      ]
    },
    {
      "mesh": 0,
      "name": "earphones jack"
    }
  ],
  "samplers": [
    {
      "magFilter": 9729,
      "minFilter": 9985,
      "wrapS": 10497,
      "wrapT": 10497
    }
  ],
  "scene": 0,
  "scenes": [
    {
      "name": "Scene",
      "nodes": [
        0
      ]
    }
  ],
  "textures": [
    {
      "sampler": 0,
      "source": 0
    },
    {
      "sampler": 0,
      "source": 1
    },
    {
      "sampler": 0,
      "source": 2
    },
    {
      "sampler": 0,
      "source": 3
    }
  ]
}