{
  "accessors": [
    {
      "bufferView": 2,
      "componentType": 5126,
      "count": 900,
      "max": [
        61.031028747558594,
        30.0,
        66.82584381103516
      ],
      "min": [
        -42.07493591308594,
        -30.975337982177734,
        0.0
      ],
      "type": "VEC3"
    },
    {
      "bufferView": 2,
      "byteOffset": 10800,
      "componentType": 5126,
      "count": 900,
      "max": [
        1.0,
        1.0,
        1.0
      ],
      "min": [
        -1.0,
        -1.0,
        -1.0
      ],
      "type": "VEC3"
    },
    {
      "bufferView": 3,
      "componentType": 5126,
      "count": 900,
      "max": [
        1.0,
        1.0,
        1.0,
        1.0
      ],
      "min": [
        -1.0,
        -1.0,
        -1.0,
        1.0
      ],
      "type": "VEC4"
    },
    {
      "bufferView": 1,
      "componentType": 5126,
      "count": 900,
      "max": [
        0.9883463382720947,
        0.9950336813926697
      ],
      "min": [
        0.274924635887146,
        0.36871662735939026
      ],
      "type": "VEC2"
    },
    {
      "bufferView": 0,
      "componentType": 5125,
      "count": 1836,
      "type": "SCALAR"
    },
    {
      "bufferView": 2,
      "byteOffset": 21600,
      "componentType": 5126,
      "count": 100,
      "max": [
        34.78877639770508,
        24.824146270751953,
        -0.09743958711624146
      ],
      "min": [
        -34.788780212402344,
        -24.824146270751953,
        -7.738214015960693
      ],
      "type": "VEC3"
    },
    {
      "bufferView": 2,
      "byteOffset": 22800,
      "componentType": 5126,
      "count": 100,
      "max": [
        0.23051851987838745,
        0.23061595857143402,
        0.9991546273231506
      ],
      "min": [
        -0.23051853477954865,
        -0.23061592876911163,
        0.9468376636505127
      ],
      "type": "VEC3"
    },
    {
      "bufferView": 1,
      "byteOffset": 7200,
      "componentType": 5126,
      "count": 100,
      "max": [
        0.9990000128746033,
        0.7131404876708984
      ],
      "min": [
        0.0010000000474974513,
        0.0010000000474974513
      ],
      "type": "VEC2"
    },
    {
      "bufferView": 0,
      "byteOffset": 7344,
      "componentType": 5125,
      "count": 486,
      "type": "SCALAR"
    },
    {
      "bufferView": 2,
      "byteOffset": 24000,
      "componentType": 5126,
      "count": 541,
      "max": [
        4.447771072387695,
        4.442535400390625,
        2.7529101371765137
      ],
      "min": [
        -4.447770118713379,
        -4.422624111175537,
        -0.679214358329773
      ],
      "type": "VEC3"
    },
    {
      "bufferView": 2,
      "byteOffset": 30492,
      "componentType": 5126,
      "count": 541,
      "max": [
        1.0,
        0.9993844628334045,
        1.0
      ],
      "min": [
        -1.0,
        -0.9988682866096497,
        -9.559156133320812e-09
      ],
      "type": "VEC3"
    },
    {
      "bufferView": 3,
      "byteOffset": 14400,
      "componentType": 5126,
      "count": 541,
      "max": [
        1.0,
        1.0,
        0.1309928148984909,
        1.0
      ],
      "min": [
        -1.0,
        -1.0,
        -0.13099254667758942,
        -1.0
      ],
      "type": "VEC4"
    },
    {
      "bufferView": 1,
      "byteOffset": 8000,
      "componentType": 5126,
      "count": 541,
      "max": [
        0.3829598128795624,
        0.7997328042984009
      ],
      "min": [
        0.005011938977986574,
        0.38134464621543884
      ],
      "type": "VEC2"
    },
    {
      "bufferView": 0,
      "byteOffset": 9288,
      "componentType": 5125,
      "count": 1362,
      "type": "SCALAR"
    },
    {
      "bufferView": 2,
      "byteOffset": 36984,
      "componentType": 5126,
      "count": 140,
      "max": [
        9.035492897033691,
        1.232391595840454,
        1.6497999429702759
      ],
      "min": [
        -1.216597557067871,
        -1.232391595840454,
        0.0
      ],
      "type": "VEC3"
    },
    {
      "bufferView": 2,
      "byteOffset": 38664,
      "componentType": 5126,
      "count": 140,
      "max": [
        0.9958144426345825,
        0.99156653881073,
        1.0
      ],
      "min": [
        -0.9958145022392273,
        -0.9915664792060852,
        -1.0
      ],
      "type": "VEC3"
    },
    {
      "bufferView": 3,
      "byteOffset": 23056,
      "componentType": 5126,
      "count": 140,
      "max": [
        1.0,
        0.9998540878295898,
        0.15246978402137756,
        1.0
      ],
      "min": [
        -1.0,
        -0.9466897249221802,
        -0.4117341637611389,
        -1.0
      ],
      "type": "VEC4"
    },
    {
      "bufferView": 1,
      "byteOffset": 12328,
      "componentType": 5126,
      "count": 140,
      "max": [
        0.9994505643844604,
        0.08249708265066147
      ],
      "min": [
        0.896315336227417,
        0.002300109714269638
      ],
      "type": "VEC2"
    },
    {
      "bufferView": 0,
      "byteOffset": 14736,
      "componentType": 5125,
      "count": 384,
      "type": "SCALAR"
    },
    {
      "bufferView": 2,
      "byteOffset": 40344,
      "componentType": 5126,
      "count": 648,
      "max": [
        0.5921344757080078,
        47.08191680908203,
        54.57844543457031
      ],
      "min": [
        -0.5921284556388855,
        -4.561469078063965,
        6.101619720458984
      ],
      "type": "VEC3"
    },
    {
      "bufferView": 2,
      "byteOffset": 48120,
      "componentType": 5126,
      "count": 648,
      "max": [
        0.9999630451202393,
        0.9996458292007446,
        1.0
      ],
      "min": [
        -0.999963104724884,
        -0.9994412660598755,
        -1.0
      ],
      "type": "VEC3"
    },
    {
      "bufferView": 3,
      "byteOffset": 25296,
      "componentType": 5126,
      "count": 648,
      "max": [
        0.999876856803894,
        0.989763081073761,
        0.9687986373901367,
        1.0
      ],
      "min": [
        -0.9998772144317627,
        -0.9896230101585388,
        -0.999880850315094,
        -1.0
      ],
      "type": "VEC4"
    },
    {
      "bufferView": 1,
      "byteOffset": 13448,
      "componentType": 5126,
      "count": 648,
      "max": [
        0.4920409917831421,
        0.26209989190101624
      ],
      "min": [
        0.4071153700351715,
        0.007907150313258171
      ],
      "type": "VEC2"
    },
    {
      "bufferView": 0,
      "byteOffset": 16272,
      "componentType": 5125,
      "count": 2016,
      "type": "SCALAR"
    },
    {
      "bufferView": 2,
      "byteOffset": 55896,
      "componentType": 5126,
      "count": 248,
      "max": [
        7.3026251792907715,
        75.70376586914063,
        31.837865829467773
      ],
      "min": [
        -81.42459869384766,
        -20.042381286621094,
        3.5941696166992188
      ],
      "type": "VEC3"
    },
    {
      "bufferView": 2,
      "byteOffset": 58872,
      "componentType": 5126,
      "count": 248,
      "max": [
        0.9995643496513367,
        0.9846717119216919,
        0.15340282022953033
      ],
      "min": [
        -0.9995642304420471,
        -0.9846714735031128,
        -0.9869939684867859
      ],
      "type": "VEC3"
    },
    {
      "bufferView": 3,
      "byteOffset": 35664,
      "componentType": 5126,
      "count": 248,
      "max": [
        0.9646894931793213,
        0.9044316411018372,
        0.9991438984870911,
        1.0
      ],
      "min": [
        -0.9646890163421631,
        -0.9044314026832581,
        -0.9771026968955994,
        -1.0
      ],
      "type": "VEC4"
    },
    {
      "bufferView": 1,
      "byteOffset": 18632,
      "componentType": 5126,
      "count": 248,
      "max": [
        0.35579541325569153,
        0.35377588868141174
      ],
      "min": [
        0.012024316936731339,
        0.012886762619018555
      ],
      "type": "VEC2"
    },
    {
      "bufferView": 0,
      "byteOffset": 24336,
      "componentType": 5125,
      "count": 816,
      "type": "SCALAR"
    },
    {
      "bufferView": 2,
      "byteOffset": 61848,
      "componentType": 5126,
      "count": 100,
      "max": [
        34.78877639770508,
        24.824146270751953,
        -0.09743958711624146
      ],
      "min": [
        -34.788780212402344,
        -24.824146270751953,
        -7.738214015960693
      ],
      "type": "VEC3"
    },
    {
      "bufferView": 2,
      "byteOffset": 63048,
      "componentType": 5126,
      "count": 100,
      "max": [
        0.23051851987838745,
        0.23061595857143402,
        0.9991546273231506
      ],
      "min": [
        -0.23051853477954865,
        -0.23061592876911163,
        0.9468376636505127
      ],
      "type": "VEC3"
    },
    {
      "bufferView": 1,
      "byteOffset": 20616,
      "componentType": 5126,
      "count": 100,
      "max": [
        1.0,
        1.0
      ],
      "min": [
        0.0,
        0.0
      ],
      "type": "VEC2"
    },
    {
      "bufferView": 0,
      "byteOffset": 27600,
      "componentType": 5125,
      "count": 486,
      "type": "SCALAR"
    },
    {
      "bufferView": 2,
      "byteOffset": 64248,
      "componentType": 5126,
      "count": 4,
      "max": [
        98.4251937866211,
        98.4251937866211,
        0.0
      ],
      "min": [
        -98.4251937866211,
        -98.4251937866211,
        0.0
      ],
      "type": "VEC3"
    },
    {
      "bufferView": 2,
      "byteOffset": 64296,
      "componentType": 5126,
      "count": 4,
      "max": [
        0.0,
        0.0,
        1.0
      ],
      "min": [
        0.0,
        0.0,
        1.0
      ],
      "type": "VEC3"
    },
    {
      "bufferView": 3,
      "byteOffset": 39632,
      "componentType": 5126,
      "count": 4,
      "max": [
        1.0,
        -0.0,
        -0.0,
        1.0
      ],
      "min": [
        1.0,
        -0.0,
        -0.0,
        1.0
      ],
      "type": "VEC4"
    },
    {
      "bufferView": 1,
      "byteOffset": 21416,
      "componentType": 5126,
      "count": 4,
      "max": [
        1.0,
        1.0
      ],
      "min": [
        0.0,
        0.0
      ],
      "type": "VEC2"
    },
    {
      "bufferView": 0,
      "byteOffset": 29544,
      "componentType": 5125,
      "count": 6,
      "type": "SCALAR"
    }
  ],
  "asset": {
    "extras": {
      "author": "LachlanHall (https://sketchfab.com/LachlanHall)",
      "license": "CC-BY-4.0 (http://creativecommons.org/licenses/by/4.0/)",
      "source": "https://sketchfab.com/3d-models/persona-4-television-3b9dfd93ea0a404fa7ba224a4f17d020",
      "title": "Persona 4 - Television"
    },
    "generator": "Sketchfab-12.66.0",
    "version": "2.0"
  },
  "bufferViews": [
    {
      "buffer": 0,
      "byteLength": 29568,
      "name": "floatBufferViews",
      "target": 34963
    },
    {
      "buffer": 0,
      "byteLength": 21448,
      "byteOffset": 29568,
      "byteStride": 8,
      "name": "floatBufferViews",
      "target": 34962
    },
    {
      "buffer": 0,
      "byteLength": 64344,
      "byteOffset": 51016,
      "byteStride": 12,
      "name": "floatBufferViews",
      "target": 34962
    },
    {
      "buffer": 0,
      "byteLength": 39696,
      "byteOffset": 115360,
      "byteStride": 16,
      "name": "floatBufferViews",
      "target": 34962
    }
  ],
  "buffers": [
    {
      "byteLength": 155056,
      "uri": "scene.bin"
    }
  ],
  "extensionsUsed": [
    "KHR_materials_clearcoat"
  ],
  "images": [
    {
      "uri": "textures/material_baseColor.png"
    },
    {
      "uri": "textures/material_metallicRoughness.png"
    },
    {
      "uri": "textures/material_normal.png"
    },
    {
      "uri": "textures/Glass_baseColor.png"
    },
    {
      "uri": "textures/Glass_metallicRoughness.png"
    },
    {
      "uri": "textures/Screen_baseColor.png"
    },
    {
      "uri": "textures/Floor_baseColor.png"
    },
    {
      "uri": "textures/Floor_metallicRoughness.png"
    },
    {
      "uri": "textures/Floor_normal.png"
    }
  ],
  "materials": [
    {
      "doubleSided": true,
      "extensions": {
        "KHR_materials_clearcoat": {
          "clearcoatFactor": 0.15979455094881104,
          "clearcoatRoughnessFactor": 0.04
        }
      },
      "name": "material",
      "normalTexture": {
        "index": 2
      },
      "occlusionTexture": {
        "index": 1
      },
      "pbrMetallicRoughness": {
        "baseColorTexture": {
          "index": 0
        },
        "metallicRoughnessTexture": {
          "index": 1
        }
      }
    },
    {
      "alphaMode": "BLEND",
      "name": "Glass",
      "occlusionTexture": {
        "index": 4
      },
      "pbrMetallicRoughness": {
        "baseColorTexture": {
          "index": 3
        },
        "metallicRoughnessTexture": {
          "index": 4
        }
      }
    },
    {
      "doubleSided": true,
      "emissiveFactor": [
        1.0,
        1.0,
        1.0
      ],
      "emissiveTexture": {
        "index": 5
      },
      "name": "Screen",
      "pbrMetallicRoughness": {
        "baseColorTexture": {
          "index": 5
        },
        "metallicFactor": 0.0,
        "roughnessFactor": 0.8929713596
      }
    },
    {
      "alphaMode": "BLEND",
      "name": "Floor",
      "normalTexture": {
        "index": 8
      },
      "occlusionTexture": {
        "index": 7
      },
      "pbrMetallicRoughness": {
        "baseColorTexture": {
          "index": 6
        },
        "metallicRoughnessTexture": {
          "index": 7
        },
        "roughnessFactor": 0.8929713596497552
      }
    }
  ],
  "meshes": [
    {
      "name": "tvBody_Tv_0",
      "primitives": [
        {
          "attributes": {
            "NORMAL": 1,
            "POSITION": 0,
            "TANGENT": 2,
            "TEXCOORD_0": 3
          },
          "indices": 4,
          "material": 0,
          "mode": 4
        }
      ]
    },
    {
      "name": "tvScreenGlass_Glass_0",
      "primitives": [
        {
          "attributes": {
            "NORMAL": 6,
            "POSITION": 5,
            "TEXCOORD_0": 7
          },
          "indices": 8,
          "material": 1,
          "mode": 4
        }
      ]
    },
    {
      "name": "tvDial_Tv_0",
      "primitives": [
        {
          "attributes": {
            "NORMAL": 10,
            "POSITION": 9,
            "TANGENT": 11,
            "TEXCOORD_0": 12
          },
          "indices": 13,
          "material": 0,
          "mode": 4
        }
      ]
    },
    {
      "name": "tvKnobs_Tv_0",
      "primitives": [
        {
          "attributes": {
            "NORMAL": 15,
            "POSITION": 14,
            "TANGENT": 16,
            "TEXCOORD_0": 17
          },
          "indices": 18,
          "material": 0,
          "mode": 4
        }
      ]
    },
    {
      "name": "tvAnt_Tv_0",
      "primitives": [
        {
          "attributes": {
            "NORMAL": 20,
            "POSITION": 19,
            "TANGENT": 21,
            "TEXCOORD_0": 22
          },
          "indices": 23,
          "material": 0,
          "mode": 4
        }
      ]
    },
    {
      "name": "tvLegs_Tv_0",
      "primitives": [
        {
          "attributes": {
            "NORMAL": 25,
            "POSITION": 24,
            "TANGENT": 26,
            "TEXCOORD_0": 27
          },
          "indices": 28,
          "material": 0,
          "mode": 4
        }
      ]
    },
    {
      "name": "tvScreenImage_Screen_0",
      "primitives": [
        {
          "attributes": {
            "NORMAL": 30,
            "POSITION": 29,
            "TEXCOORD_0": 31
          },
          "indices": 32,
          "material": 2,
          "mode": 4
        }
      ]
    },
    {
      "name": "floor_Floor_0",
      "primitives": [
        {
          "attributes": {
            "NORMAL": 34,
            "POSITION": 33,
            "TANGENT": 35,
            "TEXCOORD_0": 36
          },
          "indices": 37,
          "material": 3,
          "mode": 4
        }
      ]
    }
  ],
  "nodes": [
    {
      "children": [
        1
      ],
      "matrix": [
        1.0,
        0.0,
        0.0,
        0.0,
        0.0,
        -2.220446049250313e-16,
        1.0,
        0.0,
        0.0,
        -1.0,
        -2.220446049250313e-16,
        0.0,
        1.695662021636963,
        -131.35523986816406,
        17.731428146362276,
        1.0
      ],
      "name": "Sketchfab_model"
    },
    {
      "children": [
        2
      ],
      "matrix": [
        1.0,
        0.0,
        0.0,
        0.0,
        0.0,
        -1.0,
        0.0,
        0.0,
        0.0,
        0.0,
        -1.0,
        0.0,
        0.0,
        0.0,
        0.0,
        1.0
      ],
      "name": "a2ecd0c0fa234b15b469692bf1d649eb.fbx"
    },
    {
      "children": [
        3,
        5,
        8,
        10,
        12,
        14,
        16,
        19
      ],
      "name": "RootNode"
    },
    {
      "children": [
        4
      ],
      "matrix": [
        -4.06458645397484e-08,
        0.9298689961433402,
        0.0,
        0.0,
        -0.6617879867553704,
        -2.892767150561615e-08,
        0.0,
        0.0,
        0.0,
        0.0,
        0.8751929998397827,
        0.0,
        0.0,
        0.00026420876383781433,
        27.569242477416992,
        1.0
      ],
      "name": "tvBody"
    },
    {
      "mesh": 0,
      "name": "tvBody_Tv_0"
    },
    {
      "children": [
        6
      ],
      "matrix": [
        -4.208278811501672e-08,
        0.9627419710159293,
        -1.0688583029948908e-16,
        0.0,
        4.208278795468797e-08,
        1.9239449453908034e-15,
        0.9627419710159293,
        0.0,
        0.9627419710159284,
        4.208278795468797e-08,
        -4.208278811501672e-08,
        0.0,
        17.713336944580078,
        0.00026230141520500183,
        53.829471588134766,
        1.0
      ],
      "name": "tvScreenGlass"
    },
    {
      "children": [
        7
      ],
      "matrix": [
        1.0,
        0.0,
        -0.0,
        0.0,
        0.0,
        1.0,
        0.0,
        0.0,
        0.0,
        0.0,
        1.0,
        0.0,
        1.9073486328125e-06,
        1.712536601417014e-07,
        3.9178271293640137,
        1.0
      ],
      "name": "Object_6"
    },
    {
      "mesh": 1,
      "name": "tvScreenGlass_Glass_0"
    },
    {
      "children": [
        9
      ],
      "matrix": [
        -4.371138828673793e-08,
        0.9999999999999991,
        -1.1102230246251565e-16,
        0.0,
        4.371138834224908e-08,
        1.9984014443252818e-15,
        0.9999999999999991,
        0.0,
        0.9999999999999981,
        4.371138834224908e-08,
        -4.371138828673793e-08,
        0.0,
        20.49212646484375,
        46.00814437866211,
        35.53736114501953,
        1.0
      ],
      "name": "tvDial"
    },
    {
      "mesh": 2,
      "name": "tvDial_Tv_0"
    },
    {
      "children": [
        11
      ],
      "matrix": [
        -4.371138828673793e-08,
        0.9999999999999991,
        -1.1102230246251565e-16,
        0.0,
        4.371138834224908e-08,
        1.9984014443252818e-15,
        0.9999999999999991,
        0.0,
        0.9999999999999981,
        4.371138834224908e-08,
        -4.371138828673793e-08,
        0.0,
        20.50130271911621,
        42.098697662353516,
        47.27760314941406,
        1.0
      ],
      "name": "tvKnobs"
    },
    {
      "mesh": 3,
      "name": "tvKnobs_Tv_0"
    },
    {
      "children": [
        13
      ],
      "matrix": [
        1.0,
        0.0,
        0.0,
        0.0,
        0.0,
        0.7660444283313822,
        0.6427876273097094,
        0.0,
        0.0,
        -0.6427876273097094,
        0.7660444283313822,
        0.0,
        0.0,
        4.464316368103027,
        73.59880828857422,
        1.0
      ],
      "name": "tvAnt"
    },
    {
      "mesh": 4,
      "name": "tvAnt_Tv_0"
    },
    {
      "children": [
        15
      ],
      "matrix": [
        0.7660444283313822,
        -0.6427876273097094,
        0.0,
        0.0,
        0.6427876273097094,
        0.7660444283313822,
        0.0,
        0.0,
        0.0,
        0.0,
        1.0,
        0.0,
        10.501141548156738,
        -36.26057052612305,
        -3.594169855117798,
        1.0
      ],
      "name": "tvLegs"
    },
    {
      "mesh": 5,
      "name": "tvLegs_Tv_0"
    },
    {
      "children": [
        17
      ],
      "matrix": [
        -4.208278811501672e-08,
        0.9627419710159293,
        -1.0688583029948908e-16,
        0.0,
        4.208278795468797e-08,
        1.9239449453908034e-15,
        0.9627419710159293,
        0.0,
        0.9627419710159284,
        4.208278795468797e-08,
        -4.208278811501672e-08,
        0.0,
        17.201526641845703,
        0.00026230141520500183,
        53.829471588134766,
        1.0
      ],
      "name": "tvScreenImage"
    },
    {
      "children": [
        18
      ],
      "matrix": [
        1.0,
        0.0,
        -0.0,
        0.0,
        0.0,
        1.0,
        0.0,
        0.0,
        0.0,
        0.0,
        1.0,
        0.0,
        1.9073486328125e-06,
        1.712536601417014e-07,
        3.9178271293640137,
        1.0
      ],
      "name": "Object_17"
    },
    {
      "mesh": 6,
      "name": "tvScreenImage_Screen_0"
    },
    {
      "children": [
        20
      ],
      "matrix": [
        1.0,
        0.0,
        0.0,
        0.0,
        0.0,
        1.0,
        0.0,
        0.0,
        0.0,
        0.0,
        1.0,
        0.0,
        1.1920928955078125e-07,
        10.0,
        0.0,
        1.0
      ],
      "name": "floor"
    },
    {
      "mesh": 7,
      "name": "floor_Floor_0"
    }
  ],
  "samplers": [
    {
      "magFilter": 9729,
      "minFilter": 9987,
      "wrapS": 10497,
      "wrapT": 10497
    }
  ],
  "scene": 0,
  "scenes": [
    {
      "name": "Sketchfab_Scene",
      "nodes": [
        0
      ]
    }
  ],
  "textures": [
    {
      "sampler": 0,
      "source": 0
    },
    {
      "sampler": 0,
      "source": 1
    },
    {
      "sampler": 0,
      "source": 2
    },
    {
      "sampler": 0,
      "source": 3
    },
    {
      "sampler": 0,
      "source": 4
    },
    {
      "sampler": 0,
      "source": 5
    },
    {
      "sampler": 0,
      "source": 6
    },
    {
      "sampler": 0,
      "source": 7
    },
    {
      "sampler": 0,
      "source": 8
    }
  ]
}
