{
	"asset":{
		"generator":"Khronos glTF Blender I/O v3.5.30",
		"version":"2.0"
	},
	"extensionsUsed":[
		"KHR_materials_specular",
		"KHR_materials_ior"
	],
	"scene":0,
	"scenes":[
		{
			"name":"Scene",
			"nodes":[
				0,
				1
			]
		}
	],
	"nodes":[
		{
			"mesh":0,
			"name":"defaultMaterial",
			"rotation":[
				0.7071068286895752,
				0,
				0,
				0.7071068286895752
			],
			"scale":[
				0.009999999776482582,
				0.009999999776482582,
				0.009999999776482582
			]
		},
		{
			"mesh":1,
			"name":"defaultMaterial1",
			"rotation":[
				0.7071068286895752,
				0,
				0,
				0.7071068286895752
			],
			"scale":[
				0.009999999776482582,
				0.009999999776482582,
				0.009999999776482582
			]
		}
	],
	"materials":[
		{
			"alphaMode":"BLEND",
			"doubleSided":true,
			"extensions":{
				"KHR_materials_specular":{
					"specularColorFactor":[
						2.371357614441398,
						2.371357614441398,
						2.371357614441398
					]
				},
				"KHR_materials_ior":{
					"ior":1.4500000476837158
				}
			},
			"name":"Material_0",
			"normalTexture":{
				"index":0
			},
			"pbrMetallicRoughness":{
				"baseColorTexture":{
					"index":1
				},
				"metallicFactor":0,
				"roughnessFactor":0.5
			}
		}
	],
	"meshes":[
		{
			"name":"Malla",
			"primitives":[
				{
					"attributes":{
						"POSITION":0,
						"TEXCOORD_0":1,
						"NORMAL":2
					},
					"indices":3,
					"material":0
				}
			]
		},
		{
			"name":"Malla.001",
			"primitives":[
				{
					"attributes":{
						"POSITION":4,
						"TEXCOORD_0":5,
						"NORMAL":6
					},
					"indices":3,
					"material":0
				}
			]
		}
	],
	"textures":[
		{
			"sampler":0,
			"source":0
		},
		{
			"sampler":0,
			"source":1
		}
	],
	"images":[
		{
			"mimeType":"image/png",
			"name":"normalmap_texture",
			"uri":"../speaker/Maya/scene.fbm"
		},
		{
			"mimeType":"image/png",
			"name":"base_color_texture.001",
			"uri":"../speaker/Maya/scene.fbm/scene.fbm"
		}
	],
	"accessors":[
		{
			"bufferView":0,
			"componentType":5126,
			"count":1867,
			"max":[
				9.518960952758789,
				3.863023281097412,
				1.7881393432617188e-07
			],
			"min":[
				7.815062999725342,
				2.249185800552368,
				-2.7277073860168457
			],
			"type":"VEC3"
		},
		{
			"bufferView":1,
			"componentType":5126,
			"count":1867,
			"type":"VEC2"
		},
		{
			"bufferView":2,
			"componentType":5126,
			"count":1867,
			"type":"VEC3"
		},
		{
			"bufferView":3,
			"componentType":5123,
			"count":7221,
			"type":"SCALAR"
		},
		{
			"bufferView":4,
			"componentType":5126,
			"count":1867,
			"max":[
				9.518960952758789,
				-2.4234671592712402,
				1.7881393432617188e-07
			],
			"min":[
				7.815062999725342,
				-4.037304878234863,
				-2.7277073860168457
			],
			"type":"VEC3"
		},
		{
			"bufferView":5,
			"componentType":5126,
			"count":1867,
			"type":"VEC2"
		},
		{
			"bufferView":6,
			"componentType":5126,
			"count":1867,
			"type":"VEC3"
		}
	],
	"bufferViews":[
		{
			"buffer":0,
			"byteLength":22404,
			"byteOffset":0,
			"target":34962
		},
		{
			"buffer":0,
			"byteLength":14936,
			"byteOffset":22404,
			"target":34962
		},
		{
			"buffer":0,
			"byteLength":22404,
			"byteOffset":37340,
			"target":34962
		},
		{
			"buffer":0,
			"byteLength":14442,
			"byteOffset":59744,
			"target":34963
		},
		{
			"buffer":0,
			"byteLength":22404,
			"byteOffset":74188,
			"target":34962
		},
		{
			"buffer":0,
			"byteLength":14936,
			"byteOffset":96592,
			"target":34962
		},
		{
			"buffer":0,
			"byteLength":22404,
			"byteOffset":111528,
			"target":34962
		}
	],
	"samplers":[
		{
			"magFilter":9729,
			"minFilter":9987
		}
	],
	"buffers":[
		{
			"byteLength":133932,
			"uri":"ParlantesEXPORT.bin"
		}
	]
}
