{
  "accessors": [
    {
      "bufferView": 0,
      "componentType": 5125,
      "count": 14442,
      "type": "SCALAR"
    },
    {
      "bufferView": 1,
      "componentType": 5126,
      "count": 4955,
      "max": [
        9.51895999908447,
        2.72770690917969,
        3.70060229301453
      ],
      "min": [
        5.25126171112061,
        -2.38418579101562e-07,
        -4.64355039596558
      ],
      "type": "VEC3"
    },
    {
      "bufferView": 2,
      "componentType": 5126,
      "count": 4955,
      "type": "VEC3"
    },
    {
      "bufferView": 3,
      "componentType": 5126,
      "count": 4955,
      "type": "VEC4"
    },
    {
      "bufferView": 4,
      "componentType": 5126,
      "count": 4955,
      "type": "VEC2"
    }
  ],
  "asset": {
    "generator": "Adobe Substance 3D Painter 8.3.0",
    "version": "2.0"
  },
  "bufferViews": [
    {
      "buffer": 0,
      "byteLength": 57768,
      "target": 34963
    },
    {
      "buffer": 0,
      "byteLength": 59460,
      "byteOffset": 57768,
      "target": 34962
    },
    {
      "buffer": 0,
      "byteLength": 59460,
      "byteOffset": 117228,
      "target": 34962
    },
    {
      "buffer": 0,
      "byteLength": 79280,
      "byteOffset": 176688,
      "target": 34962
    },
    {
      "buffer": 0,
      "byteLength": 39640,
      "byteOffset": 255968,
      "target": 34962
    }
  ],
  "buffers": [
    {
      "byteLength": 295608,
      "uri": "PBR - Metallic Roughness Alpha-blend.bin"
    }
  ],
  "images": [
    {
      "uri": "Material_0_baseColor.png"
    },
    {
      "uri": "Material_0_occlusionRoughnessMetallic.png"
    },
    {
      "uri": "Material_0_normal.png"
    },
    {
      "uri": "Material_0_emissive.png"
    }
  ],
  "materials": [
    {
      "alphaMode": "BLEND",
      "emissiveFactor": [
        1.0,
        1.0,
        1.0
      ],
      "emissiveTexture": {
        "index": 3
      },
      "name": "Material_0",
      "normalTexture": {
        "index": 2
      },
      "occlusionTexture": {
        "index": 1
      },
      "pbrMetallicRoughness": {
        "baseColorTexture": {
          "index": 0
        },
        "metallicRoughnessTexture": {
          "index": 1
        }
      }
    }
  ],
  "meshes": [
    {
      "name": "Parlante",
      "primitives": [
        {
          "attributes": {
            "NORMAL": 2,
            "POSITION": 1,
            "TANGENT": 3,
            "TEXCOORD_0": 4
          },
          "indices": 0,
          "material": 0,
          "mode": 4
        }
      ]
    }
  ],
  "nodes": [
    {
      "children": [
        1
      ],
      "name": "RootNode"
    },
    {
      "children": [
        2
      ],
      "name": "Parlante",
      "rotation": [
        0.0,
        0.8201664686203,
        0.0,
        0.572125017642975
      ],
      "scale": [
        2.25393629074097,
        2.25393629074097,
        2.25393629074097
      ],
      "translation": [
        12.4526586532593,
        8.88178419700125e-16,
        11.2327709197998
      ]
    },
    {
      "mesh": 0,
      "name": "Parlante"
    }
  ],
  "samplers": [
    {
      "magFilter": 9729,
      "minFilter": 9985,
      "wrapS": 10497,
      "wrapT": 10497
    }
  ],
  "scene": 0,
  "scenes": [
    {
      "name": "Scene",
      "nodes": [
        0
      ]
    }
  ],
  "textures": [
    {
      "sampler": 0,
      "source": 0
    },
    {
      "sampler": 0,
      "source": 1
    },
    {
      "sampler": 0,
      "source": 2
    },
    {
      "sampler": 0,
      "source": 3
    }
  ]
}